PathFileType	4	(X/Y/Z)	/home/filipkon/dev/OpenSimRT/data/gait1992/experimental_data/task_resampled.trc
DataRate	CameraRate	NumFrames	NumMarkers	Units	OrigDataRate	OrigDataStartFrame	OrigNumFrames
100	100	4	41	mm	100	31	251
Frame#	Time	R.ASIS			L.ASIS			V.Sacral			R.Thigh.Upper			R.Thigh.Front			R.Thigh.Rear			L.Thigh.Upper			L.Thigh.Front			L.Thigh.Rear			R.Shank.Upper			R.Shank.Front			R.Shank.Rear			L.Shank.Upper			L.Shank.Front			L.Shank.Rear			R.Heel			R.Midfoot.Sup			R.Midfoot.Lat			R.Toe.Tip			L.Heel			L.Midfoot.Sup			L.Midfoot.Lat			L.Toe.Tip			Sternum			R.Acromium			L.Acromium			R.Bicep			L.Bicep			R.Elbow			L.Elbow			R.Wrist.Med			R.Wrist.Lat			L.Wrist.Med			L.Wrist.Lat			R.Toe.Lat			R.Toe.Med			L.Toe.Lat			L.Toe.Med			R.Temple			L.Temple			Top.Head			
		X1	Y1	Z1	X2	Y2	Z2	X3	Y3	Z3	X4	Y4	Z4	X5	Y5	Z5	X6	Y6	Z6	X7	Y7	Z7	X8	Y8	Z8	X9	Y9	Z9	X10	Y10	Z10	X11	Y11	Z11	X12	Y12	Z12	X13	Y13	Z13	X14	Y14	Z14	X15	Y15	Z15	X16	Y16	Z16	X17	Y17	Z17	X18	Y18	Z18	X19	Y19	Z19	X20	Y20	Z20	X21	Y21	Z21	X22	Y22	Z22	X23	Y23	Z23	X24	Y24	Z24	X25	Y25	Z25	X26	Y26	Z26	X27	Y27	Z27	X28	Y28	Z28	X29	Y29	Z29	X30	Y30	Z30	X31	Y31	Z31	X32	Y32	Z32	X33	Y33	Z33	X34	Y34	Z34	X35	Y35	Z35	X36	Y36	Z36	X37	Y37	Z37	X38	Y38	Z38	X39	Y39	Z39	X40	Y40	Z40	X41	Y41	Z41	

32	0.31	631.4658841176471	1087.172668823529	117.2141358823529	646.3628758823529	1070.010706470588	-142.6099058823529	441.5409152941177	1075.728926470588	-11.80025588235294	660.5551147058824	769.2875141176471	184.6689923529412	746.6650252941176	721.0773470588235	107.6706423529412	684.1284623529413	649.6063364705882	187.6754411764706	603.8354552941177	764.2067035294118	-187.9671464705882	693.3283270588236	731.6945829411765	-119.2528835294118	606.0289605882352	654.8476217647059	-166.5930558823529	602.5441882352941	528.57906	171.3327735294118	640.0564729411765	444.27957	131.8563223529412	551.757335882353	458.0343329411765	175.9166217647059	594.9826505882353	440.7078335294117	-156.6048305882353	638.1180682352941	390.31288	-99.98184176470588	571.8697952941177	398.1003552941177	-161.8533364705882	296.1539429411765	299.57897	60.65028823529411	398.5778594117647	191.5975523529412	61.88320411764706	358.5166317647059	198.6068064705882	160.4400717647059	456.4751411764706	70.96273411764706	130.5764788235294	487.3798682352941	76.86465470588236	-58.80820117647059	657.8830476470588	75.21048235294118	-29.07574588235294	642.3829511764707	67.86725176470588	-126.5622135294118	770.2460276470588	49.48246588235294	-58.54374647058823	663.4996329411765	1385.989568235294	-32.49736176470589	553.1504417647059	1484.995575882353	168.2960335294118	608.7034988235295	1490.52289	-247.9703788235294	545.7371276470587	1287.019407058824	222.8830194117647	641.7332388235294	1251.043378823529	-262.1705817647059	492.3802641176471	1190.055348235294	252.0865158823529	599.5973111764706	1150.58288	-296.4521841176471	612.7449905882353	948.5875947058823	269.4921570588235	566.9450782352941	939.7317958823529	315.6032694117647	722.8264694117647	933.6956964705882	-236.8511529411765	681.3981070588235	917.9471176470588	-298.2326505882353	389.1031647058824	116.5153617647059	190.7697423529412	426.9041829411765	105.0111011764706	88.20630352941176	704.905355882353	41.72929235294117	-134.0697705882353	719.7762388235294	51.04002176470588	-32.86705588235294	730.5632347058823	1607.965850588235	44.65045529411765	745.8720811764706	1608.617748823529	-93.28411235294118	742.9959758823529	1783.169345294118	-19.43064294117647	
33	0.32	630.0026925	1088.0283	116.04042375	644.324300625	1069.8899925	-143.822215	440.065276875	1076.230070625	-12.236853125	664.756729375	772.60740375	184.113848125	750.28706125	725.1179587500001	106.314086875	690.657481875	652.9864125	186.973626875	597.6177162500001	764.403084375	-188.11173125	687.461500625	730.945671875	-120.489503125	598.93111375	655.1738937499999	-167.39374625	611.51471	529.400881875	170.1869625	650.8184650000001	446.42752125	131.281040625	562.45848125	457.386735	175.313565625	585.1911943749999	440.878285625	-157.112480625	628.325025	390.32453375	-100.51656625	562.140569375	398.505213125	-162.19486875	310.204026875	292.156839375	61.588951875	416.23905625	187.96763875	61.165660625	376.86851	192.865096875	160.119389375	479.177458125	69.097739375	128.381319375	476.25688375	77.03460125000001	-58.96647249999999	646.5959668749999	75.19619312500001	-29.26343875	631.0619625	67.77070562500001	-126.717216875	758.85386375	49.20543125	-58.70985625	662.370191875	1386.406925	-33.040220625	551.15845875	1485.208965	167.74944	608.53086875	1491.58990125	-248.551806875	542.412546875	1287.8403925	221.986365625	642.2285556249999	1252.425438125	-262.46536	488.5927075	1190.967733125	250.9413475	601.219669375	1151.33109375	-296.861178125	608.658939375	949.690399375	269.102660625	562.07190875	940.5964206250001	314.917729375	727.4825543750001	937.0062893750001	-236.185078125	686.655225625	920.15086875	-297.334765	410.308930625	111.229380625	189.434846875	448.123606875	102.237639375	86.48714875	693.5442406249999	41.584943125	-134.246421875	708.4026725	50.91640125	-33.01086625	729.693383125	1608.472713125	44.2493225	744.950271875	1609.225803125	-93.32347312500001	742.1265225	1783.74013375	-19.4513675	
34	0.33	629.6527675	1089.3832	114.74253625	642.349469375	1069.5688675	-145.529665	438.406533125	1076.552639375	-12.714496875	668.392860625	775.70631625	184.729741875	754.92759875	730.21432125	104.947643125	696.4515881250001	656.2754874999999	186.200283125	591.12960375	764.636465625	-188.05146875	681.632069375	730.440678125	-122.423546875	590.94492625	655.7047062500001	-168.03713375	619.51581	530.054988125	169.9333375	661.561415	448.34575875	130.617409375	573.19471875	456.649885	174.802984375	574.859275625	441.147504375	-157.318149375	619.039175	390.66554625	-101.68435375	552.0346006249999	398.981056875	-162.56803125	325.315383125	282.970170625	63.079158125	435.38044375	183.32250125	60.645429375	396.87301	185.775453125	160.008020625	504.024051875	66.632870625	125.855250625	464.67429625	77.23273875	-59.1040475	634.772923125	75.216036875	-29.48610125	619.2826375	67.61942437499999	-126.876373125	746.91737625	48.94836875	-58.83894375	661.5832981249999	1387.170475	-33.514589375	550.94262125	1486.016615	166.63044	608.4077312500001	1492.74163875	-248.699863125	539.655203125	1288.3695675	221.148784375	642.116174375	1253.251931875	-262.72436	484.6041325	1191.001376875	250.0582725	602.623900625	1151.96150625	-297.774871875	604.846070625	950.463830625	268.441229375	556.85607125	941.163589375	313.780760625	732.1371356249999	940.5626206249999	-235.229371875	692.207444375	922.36683125	-296.395915	432.902099375	104.895049375	187.825603125	471.255363125	98.80407062499999	84.80561125	681.681409375	41.468986875	-134.481128125	696.5747475000001	50.79853875	-33.14815375	728.394626875	1608.294256875	44.5659975	744.275678125	1609.782746875	-93.639516875	740.9885975	1784.14304625	-19.3282925	
35	0.34	628.5828152941176	1089.967255882353	113.4749747058824	640.2477582352941	1069.206632941177	-146.6185764705882	436.6734388235294	1076.727118235294	-13.30726411764706	671.257351764706	778.4641758823529	184.6856347058824	757.8814723529412	733.8670176470588	103.8377058823529	701.3576494117648	659.2429958823529	185.3332482352941	584.9971864705882	764.9326705882353	-188.0564776470588	675.7731570588235	729.6642982352942	-123.7803070588235	583.8399394117647	656.1467129411765	-168.515675882353	627.4275652941177	530.5829129411765	170.3305405882353	671.0781894117648	450.1473005882353	129.5161023529412	582.9181	455.5787376470589	175.0949235294118	565.2296717647058	441.5498747058824	-157.5622205882353	609.4389941176471	390.7300417647059	-102.5026029411765	542.33111	399.4823088235294	-162.8979435294117	340.3644205882354	272.8588170588235	64.77294470588235	454.4283611764706	178.1678723529412	60.45341705882353	416.8681011764706	178.1939788235294	160.1578741176471	528.8210035294118	64.1115888235294	123.6723329411765	453.5681776470588	77.46085529411765	-59.21369764705882	623.4110782352941	75.24139647058824	-29.71106705882353	607.9898505882353	67.44035647058823	-127.0484441176471	735.4546935294117	48.73514941176471	-58.95653529411765	660.818174117647	1387.405065882353	-33.86277823529412	549.7522535294117	1485.888161176471	166.1177388235294	608.0877017647059	1493.405182352941	-248.8659605882353	536.2282329411764	1288.549982941176	220.3545488235294	642.7623329411764	1254.417250588235	-263.6213688235294	480.6594752941176	1191.513913529412	248.9522835294118	604.1984323529412	1152.411202941176	-298.7326988235294	600.9498141176471	950.8281064705883	268.1601752941177	553.1384782352941	941.8477911764705	313.1224382352941	736.8329311764705	943.9038488235294	-234.4403564705882	697.3021094117647	924.35294	-295.3176970588235	457.2688923529412	98.93891705882351	187.2368952941176	494.214731764706	95.18756176470588	83.56888823529412	670.2699764705882	41.33909470588235	-134.71548	685.24265	50.66793882352941	-33.27020647058823	727.820834117647	1608.465704117647	44.45419941176471	743.5768929411765	1609.992303529412	-93.79569117647058	740.4989394117647	1784.259897058824	-19.15894235294118	
